<svg width="32" height="32" viewBox="0 0 1113.57 1295.11" fill="none" xmlns="http://www.w3.org/2000/svg" className="text-white">
        <g transform="translate(-91.34 -216.37)">
            <path d="M648.14,1050.6c183.38,0,350.48,70.73,475.71,186.23l81.06-46.82C1061.72,1048.36,865,960.71,648.14,960.71S234.55,1048.36,91.34,1190l81.08,46.81C297.64,1121.33,464.76,1050.6,648.14,1050.6Z" fill="#ffffff" />
            <path d="M648.14,1234.15A516,516,0,0,1,954.49,1334.6l83.81-48.39c-105.72-88.54-241.8-142-390.16-142s-284.46,53.42-390.18,142l83.82,48.39A516,516,0,0,1,648.14,1234.15Z" fill="#ffffff" />
            <path d="M841.63,1399.76a403,403,0,0,0-387,0l193.5,111.72Z" fill="#ffffff" />
            <path d="M172.94,1089.27V584.32L648.13,310l475.2,274.34v504.95a802.08,802.08,0,0,1,78.21,67.16h2.86V537.51L648.13,216.37,91.86,537.51v618.92h2.88A800.79,800.79,0,0,1,172.94,1089.27Z" fill="#ffffff" />
            <path d="M648.14,930.31a787.27,787.27,0,0,1,441.91,135.16v-462L648.13,347.14V930.31Z" fill="#ffffff" />
        </g>
    </svg>